<svg xmlns="http://www.w3.org/2000/svg" width="32" height="32" viewBox="0 0 32 32">
  <circle cx="16" cy="16" r="16" fill="#5865F2"/>
  <path fill="#fff" d="M22.225 11.15a13.5 13.5 0 0 0-3.337-.978.05.05 0 0 0-.053.025c-.144.256-.303.59-.415.852a12.5 12.5 0 0 0-3.74 0 8.6 8.6 0 0 0-.42-.852.052.052 0 0 0-.054-.025 13.5 13.5 0 0 0-3.337.978.047.047 0 0 0-.022.018c-2.125 3.175-2.707 6.27-2.421 9.328a.055.055 0 0 0 .021.038 13.6 13.6 0 0 0 4.095 2.07.052.052 0 0 0 .057-.019c.315-.43.596-.885.838-1.362a.051.051 0 0 0-.028-.071 8.9 8.9 0 0 1-1.28-.61.052.052 0 0 1-.005-.086c.086-.064.172-.131.254-.199a.05.05 0 0 1 .052-.007c2.686 1.227 5.593 1.227 8.246 0a.05.05 0 0 1 .053.006c.082.068.168.136.255.2a.052.052 0 0 1-.004.086c-.408.238-.838.44-1.281.609a.051.051 0 0 0-.027.072c.247.477.528.93.837 1.361a.051.051 0 0 0 .057.02 13.56 13.56 0 0 0 4.1-2.07.052.052 0 0 0 .022-.038c.342-3.535-.573-6.604-2.425-9.328a.04.04 0 0 0-.021-.018zM13.07 18.37c-.807 0-1.472-.74-1.472-1.65s.652-1.65 1.472-1.65c.827 0 1.485.747 1.472 1.65 0 .91-.652 1.65-1.472 1.65zm5.44 0c-.807 0-1.472-.74-1.472-1.65s.652-1.65 1.472-1.65c.827 0 1.485.747 1.472 1.65 0 .91-.645 1.65-1.472 1.65z"/>
</svg>
